<svg width="231" height="32" viewBox="0 0 231 32" fill="none" xmlns="http://www.w3.org/2000/svg">
<path d="M61.7608 17.022V19.4054H57.8469V31.7742H54.8864V19.4054H50.9475V17.022H61.7608Z" fill="#07302D"/>
<path d="M69.3877 24.8497C69.3877 24.072 69.1118 23.4698 68.5849 23.0182C68.0329 22.5666 67.3806 22.3408 66.6029 22.3408C65.8753 22.3408 65.2481 22.5415 64.7714 22.9931C64.2696 23.4447 63.9435 24.0469 63.8431 24.8497H69.3877ZM72.3733 26.8317H63.818C63.8933 27.6848 64.1944 28.3371 64.6961 28.8137C65.223 29.2904 65.8753 29.5413 66.628 29.5413C67.7319 29.5413 68.5096 29.0646 68.9863 28.1113H72.1726C71.8214 29.2403 71.1941 30.1685 70.2157 30.8961C69.2623 31.6237 68.0831 32 66.7032 32C65.5742 32 64.5456 31.7491 63.6675 31.2474C62.7643 30.7456 62.0618 30.0431 61.56 29.1148C61.0583 28.2116 60.8074 27.1328 60.8074 25.9536C60.8074 24.7243 61.0583 23.6705 61.56 22.7423C62.0367 21.8391 62.7392 21.1366 63.6173 20.6348C64.5205 20.133 65.5492 19.9072 66.7032 19.9072C67.8071 19.9072 68.8107 20.133 69.6888 20.6097C70.5669 21.0864 71.2443 21.7889 71.7461 22.667C72.2228 23.5451 72.4737 24.5487 72.4737 25.7027C72.4737 26.1042 72.4486 26.5056 72.3733 26.8317Z" fill="#07302D"/>
<path d="M80.8787 31.7743L78.4701 28.1365L76.3376 31.7743H73.1513L76.9899 25.9035L73.1262 20.0579H76.463L78.8465 23.6957L81.0041 20.0579H84.1653L80.3267 25.9035L84.2155 31.7743H80.8787Z" fill="#07302D"/>
<path d="M106.72 29.0145C107.196 28.7636 107.573 28.3621 107.849 27.8353C108.15 27.3335 108.275 26.6812 108.275 25.9536C108.275 24.8246 107.974 23.9716 107.397 23.3695C106.82 22.7673 106.092 22.4663 105.265 22.4663C104.412 22.4663 103.709 22.7673 103.132 23.3695C102.555 23.9716 102.279 24.8246 102.279 25.9536C102.279 27.0575 102.555 27.9106 103.107 28.5127C103.659 29.1148 104.361 29.4159 105.214 29.4159C105.741 29.4159 106.243 29.2904 106.72 29.0145ZM102.179 31.2474C101.275 30.7456 100.548 30.0431 100.046 29.1148C99.5192 28.2116 99.2683 27.1328 99.2683 25.9536C99.2683 24.7494 99.5443 23.6956 100.071 22.7673C100.598 21.8642 101.326 21.1366 102.229 20.6599C103.157 20.1581 104.161 19.9072 105.29 19.9072C106.419 19.9072 107.447 20.1581 108.376 20.6599C109.279 21.1366 110.006 21.8642 110.533 22.7673C111.06 23.6956 111.336 24.7494 111.336 25.9536C111.336 27.1328 111.06 28.2116 110.508 29.1148C109.956 30.0431 109.229 30.7456 108.3 31.2474C107.397 31.7491 106.343 32 105.214 32C104.085 32 103.082 31.7491 102.179 31.2474Z" fill="#07302D"/>
<path d="M133.139 29.0145C133.615 28.7636 133.992 28.3621 134.268 27.8353C134.544 27.3335 134.694 26.6812 134.694 25.9536C134.694 24.8246 134.393 23.9716 133.816 23.3695C133.214 22.7673 132.511 22.4663 131.658 22.4663C130.83 22.4663 130.103 22.7673 129.551 23.3695C128.974 23.9716 128.673 24.8246 128.673 25.9536C128.673 27.0575 128.974 27.9106 129.526 28.5127C130.078 29.1148 130.78 29.4159 131.633 29.4159C132.16 29.4159 132.662 29.2904 133.139 29.0145ZM128.572 31.2474C127.669 30.7456 126.967 30.0431 126.465 29.1148C125.938 28.2116 125.687 27.1328 125.687 25.9536C125.687 24.7494 125.938 23.6956 126.465 22.7673C126.992 21.8642 127.719 21.1366 128.648 20.6599C129.551 20.1581 130.58 19.9072 131.709 19.9072C132.838 19.9072 133.866 20.1581 134.769 20.6599C135.698 21.1366 136.4 21.8642 136.952 22.7673C137.479 23.6956 137.73 24.7494 137.73 25.9536C137.73 27.1328 137.454 28.2116 136.927 29.1148C136.375 30.0431 135.648 30.7456 134.719 31.2474C133.791 31.7491 132.762 32 131.633 32C130.504 32 129.476 31.7491 128.572 31.2474Z" fill="#07302D"/>
<path d="M192.373 28.7134C193.05 28.312 193.577 27.735 193.954 26.9823C194.355 26.2547 194.531 25.3766 194.531 24.3982C194.531 23.4197 194.355 22.5416 193.954 21.814C193.577 21.0614 193.05 20.5094 192.373 20.108C191.696 19.7066 190.918 19.5058 190.04 19.5058C189.137 19.5058 188.359 19.7066 187.681 20.108C186.979 20.5094 186.452 21.0614 186.076 21.814C185.699 22.5416 185.499 23.4197 185.499 24.3982C185.499 25.3766 185.699 26.2547 186.076 26.9823C186.452 27.735 186.979 28.312 187.681 28.7134C188.359 29.1149 189.137 29.3156 190.04 29.3156C190.918 29.3156 191.696 29.1149 192.373 28.7134ZM186.226 30.9965C185.072 30.3442 184.144 29.441 183.466 28.2869C182.789 27.1579 182.463 25.8533 182.463 24.3982C182.463 22.9681 182.789 21.6635 183.466 20.5094C184.144 19.3553 185.072 18.4772 186.226 17.8249C187.38 17.1726 188.66 16.8464 190.04 16.8464C191.42 16.8464 192.699 17.1726 193.853 17.8249C195.007 18.4772 195.91 19.3553 196.563 20.5094C197.24 21.6635 197.566 22.9681 197.566 24.3982C197.566 25.8533 197.24 27.1579 196.563 28.2869C195.91 29.441 194.982 30.3442 193.828 30.9965C192.674 31.6488 191.42 31.975 190.04 31.975C188.66 31.975 187.38 31.6488 186.226 30.9965Z" fill="#07302D"/>
<path d="M217.286 20.5095C217.938 19.3554 218.816 18.4773 219.971 17.825C221.1 17.1977 222.379 16.8716 223.784 16.8716C225.415 16.8716 226.87 17.2981 228.099 18.126C229.354 18.979 230.207 20.1582 230.709 21.6385H227.296C226.97 20.936 226.494 20.4091 225.891 20.0579C225.264 19.7066 224.562 19.531 223.759 19.531C222.906 19.531 222.128 19.7317 221.451 20.1331C220.798 20.5345 220.272 21.1116 219.895 21.8392C219.519 22.5667 219.343 23.4198 219.343 24.4233C219.343 25.3767 219.519 26.2548 219.895 26.9824C220.272 27.735 220.798 28.287 221.451 28.6884C222.128 29.0898 222.906 29.2905 223.759 29.2905C224.562 29.2905 225.264 29.1149 225.891 28.7637C226.494 28.4124 226.97 27.8605 227.296 27.158H230.709C230.207 28.6633 229.354 29.8425 228.124 30.6955C226.895 31.5234 225.44 31.9499 223.784 31.9499C222.379 31.9499 221.1 31.6238 219.971 30.9715C218.816 30.3443 217.938 29.4411 217.286 28.3121C216.634 27.158 216.282 25.8785 216.282 24.4233C216.282 22.9682 216.634 21.6635 217.286 20.5095Z" fill="#07302D"/>
<path d="M94.2507 20.0828H97.2111V31.7741H94.2507V27.1327H88.982V31.7741H86.0466V20.0828H88.982V24.7242H94.2507V20.0828Z" fill="#07302D"/>
<path d="M147.84 20.0828V22.5164H142.522V31.7741H139.586V20.0828H147.84Z" fill="#07302D"/>
<path d="M158.554 20.0828H161.037V31.7741H158.027V24.3228L152.306 31.7741H149.873V20.0828H152.833V27.484L158.554 20.0828Z" fill="#07302D"/>
<path d="M171.65 20.0828H174.134V31.7741H171.123V24.3228L165.403 31.7741H162.969V20.0828H165.929V27.484L171.65 20.0828Z" fill="#07302D"/>
<path d="M123.83 20.0828V31.7741H120.845V22.5164H117.383V26.8567C117.383 30.595 115.25 32.0752 112.264 31.7741V29.4158C113.694 29.6667 114.422 28.8889 114.422 26.7564V20.0828H123.83Z" fill="#07302D"/>
<path d="M210.638 26.6311C210.035 27.2082 209.308 27.5092 208.455 27.5092V21.2872C209.308 21.2872 210.035 21.5632 210.638 22.1653C211.24 22.7674 211.516 23.495 211.516 24.3982C211.516 25.2763 211.24 26.029 210.638 26.6311ZM205.419 27.5092C204.566 27.5092 203.839 27.2082 203.236 26.6311C202.634 26.029 202.358 25.2763 202.358 24.3982C202.358 23.495 202.634 22.7674 203.236 22.1653C203.839 21.5632 204.566 21.2872 205.419 21.2872V27.5092ZM212.695 20.1582C211.541 19.0041 210.136 18.4271 208.455 18.4271V16.8716H205.419V18.4271C203.738 18.4271 202.333 19.0041 201.179 20.1582C200.025 21.3123 199.448 22.7173 199.448 24.3982C199.448 26.0792 200.025 27.4841 201.179 28.6382C202.333 29.7923 203.738 30.3693 205.419 30.3693V31.9499H208.455V30.3693C210.136 30.3693 211.541 29.7923 212.695 28.6382C213.849 27.4841 214.426 26.0792 214.426 24.3982C214.426 22.7173 213.849 21.3123 212.695 20.1582Z" fill="#07302D"/>
<path d="M34.4139 17.022L3.3289 17.0471C1.096 17.0471 -0.484598 19.1796 0.142622 21.3122L2.52606 29.3155C2.95257 30.7205 4.25718 31.6738 5.71233 31.6738L36.8224 31.6487C39.0303 31.6487 40.6108 29.5162 39.9836 27.3836L37.6002 19.4054C37.1737 17.9753 35.8942 17.022 34.4139 17.022Z" fill="#0078BE"/>
<path d="M33.5359 14.0866L7.51882 31.1219C5.66225 32.3513 3.15338 31.423 2.52616 29.2904L0.142721 21.2871C-0.283789 19.8821 0.268165 18.3768 1.49752 17.574L27.5146 0.538675C29.3712 -0.665587 31.88 0.237609 32.5073 2.37016L34.8907 10.3735C35.3172 11.7785 34.7652 13.2838 33.5359 14.0866Z" fill="#03BE93"/>
</svg>
